<svg xmlns="http://www.w3.org/2000/svg" width="9.141" height="12" viewBox="0 0 9.141 12">
  <g id="medal" transform="translate(-61)">
    <g id="Group_159" data-name="Group 159" transform="translate(61)">
      <g id="Group_158" data-name="Group 158" transform="translate(0)">
        <path id="Path_47" data-name="Path 47" d="M65.57,0a4.569,4.569,0,0,0-2.461,8.42v3.228a.352.352,0,0,0,.547.293l1.914-1.276,1.914,1.276a.352.352,0,0,0,.547-.293V8.42A4.569,4.569,0,0,0,65.57,0Zm1.758,10.992L65.765,9.95a.352.352,0,0,0-.39,0l-1.563,1.042v-2.2a4.568,4.568,0,0,0,3.516,0ZM65.57,8.437A3.867,3.867,0,1,1,69.438,4.57,3.872,3.872,0,0,1,65.57,8.437Z" transform="translate(-61)"/>
      </g>
    </g>
    <g id="Group_161" data-name="Group 161" transform="translate(62.758 1.758)">
      <g id="Group_160" data-name="Group 160" transform="translate(0)">
        <path id="Path_48" data-name="Path 48" d="M141.607,76.99a.352.352,0,0,0-.285-.241l-1.519-.215-.678-1.341a.352.352,0,0,0-.628,0l-.678,1.341-1.519.215a.352.352,0,0,0-.193.6l1.094,1.041-.258,1.468a.352.352,0,0,0,.507.374l1.36-.7,1.36.7a.352.352,0,0,0,.507-.374l-.258-1.468,1.094-1.041A.352.352,0,0,0,141.607,76.99ZM139.8,78.014a.352.352,0,0,0-.1.316l.168.957-.892-.458a.352.352,0,0,0-.321,0l-.892.458.168-.957a.352.352,0,0,0-.1-.316l-.7-.67.981-.139a.352.352,0,0,0,.264-.189l.447-.884.447.884a.351.351,0,0,0,.264.189l.981.139Z" transform="translate(-135.999 -75)"/>
      </g>
    </g>
  </g>
</svg>
