<svg xmlns="http://www.w3.org/2000/svg" width="10.714" height="11.166" viewBox="0 0 10.714 11.166">
  <g id="discount_1_" data-name="discount (1)" transform="translate(-10.359 0.002)">
    <g id="Group_203" data-name="Group 203" transform="translate(10.359 -0.002)">
      <g id="Group_202" data-name="Group 202" transform="translate(0 0)">
        <path id="Path_124" data-name="Path 124" d="M20.556,5.726a.327.327,0,0,1,0-.289l.416-.852A.969.969,0,0,0,20.554,3.3l-.838-.444a.327.327,0,0,1-.17-.234l-.164-.934a.969.969,0,0,0-1.095-.8l-.939.133a.327.327,0,0,1-.275-.089L16.393.273a.969.969,0,0,0-1.353,0l-.682.659a.327.327,0,0,1-.275.089L13.144.889a.969.969,0,0,0-1.095.8l-.164.934a.327.327,0,0,1-.17.234l-.838.444a.969.969,0,0,0-.418,1.287l.416.852a.327.327,0,0,1,0,.289l-.416.852a.969.969,0,0,0,.418,1.287l.838.444a.327.327,0,0,1,.17.234l.164.934a.969.969,0,0,0,.955.805,1,1,0,0,0,.139-.01l.939-.133a.327.327,0,0,1,.275.089l.682.659a.969.969,0,0,0,1.353,0l.682-.659a.328.328,0,0,1,.275-.089l.939.133a.969.969,0,0,0,1.095-.8l.164-.934a.327.327,0,0,1,.17-.234l.838-.444a.969.969,0,0,0,.418-1.287ZM14.428,2.683a1.181,1.181,0,1,1-1.181,1.181A1.182,1.182,0,0,1,14.428,2.683Zm-.609,5.251a.322.322,0,0,1-.455-.455l4.25-4.25a.322.322,0,1,1,.455.455ZM17,8.479A1.181,1.181,0,1,1,18.184,7.3,1.182,1.182,0,0,1,17,8.479Z" transform="translate(-10.359 0.002)" fill="#fff"/>
      </g>
    </g>
    <g id="Group_205" data-name="Group 205" transform="translate(16.467 6.762)">
      <g id="Group_204" data-name="Group 204" transform="translate(0)">
        <path id="Path_125" data-name="Path 125" d="M290.989,310.141a.537.537,0,1,0,.537.537A.537.537,0,0,0,290.989,310.141Z" transform="translate(-290.452 -310.141)" fill="#fff"/>
      </g>
    </g>
    <g id="Group_207" data-name="Group 207" transform="translate(13.891 3.327)">
      <g id="Group_206" data-name="Group 206" transform="translate(0)">
        <path id="Path_126" data-name="Path 126" d="M172.87,152.646a.537.537,0,1,0,.537.537A.537.537,0,0,0,172.87,152.646Z" transform="translate(-172.333 -152.646)" fill="#fff"/>
      </g>
    </g>
  </g>
</svg>
