<svg xmlns="http://www.w3.org/2000/svg" width="13.572" height="13.572" viewBox="0 0 13.572 13.572">
  <path id="ic_local_grocery_store_24px" d="M5.072,12.857a1.357,1.357,0,1,0,1.357,1.357A1.355,1.355,0,0,0,5.072,12.857ZM1,2V3.357H2.357L4.8,8.508,3.884,10.17a1.312,1.312,0,0,0-.17.651,1.361,1.361,0,0,0,1.357,1.357h8.143V10.822H5.357a.168.168,0,0,1-.17-.17l.02-.081.611-1.106h5.055a1.351,1.351,0,0,0,1.188-.7l2.429-4.4a.663.663,0,0,0,.081-.326.681.681,0,0,0-.679-.679H3.857L3.219,2H1ZM11.857,12.857a1.357,1.357,0,1,0,1.357,1.357A1.355,1.355,0,0,0,11.857,12.857Z" transform="translate(-1 -2)" opacity="0.25"/>
</svg>
