<svg id="iconfinder_6351904_filter_filtering_filters_funnel_sort_icon" xmlns="http://www.w3.org/2000/svg" width="24" height="22.5" viewBox="0 0 24 22.5">
  <path id="Path_40" data-name="Path 40" d="M4.407,7.25H3a1,1,0,0,1,0-2H4.407a3.251,3.251,0,0,1,6.187,0H25a1,1,0,0,1,0,2H10.593a3.251,3.251,0,0,1-6.187,0Zm1.343-1A1.75,1.75,0,1,1,7.5,8,1.75,1.75,0,0,1,5.75,6.25Z" transform="translate(-2 -3)" fill="#fff" fill-rule="evenodd"/>
  <path id="Path_41" data-name="Path 41" d="M3,15.25H17.446a3.251,3.251,0,0,0,6.186,0H25a1,1,0,0,0,0-2H23.632a3.251,3.251,0,0,0-6.186,0H3a1,1,0,0,0,0,2ZM20.539,12.5a1.75,1.75,0,1,0,1.75,1.75A1.75,1.75,0,0,0,20.539,12.5Z" transform="translate(-2 -3)" fill="#fff" fill-rule="evenodd"/>
  <path id="Path_42" data-name="Path 42" d="M10.407,23.25H3a1,1,0,0,1,0-2h7.407a3.251,3.251,0,0,1,6.187,0H25a1,1,0,0,1,0,2H16.593a3.251,3.251,0,0,1-6.187,0Zm1.343-1A1.75,1.75,0,1,1,13.5,24,1.75,1.75,0,0,1,11.75,22.25Z" transform="translate(-2 -3)" fill="#fff" fill-rule="evenodd"/>
</svg>
