<svg xmlns="http://www.w3.org/2000/svg" xmlns:xlink="http://www.w3.org/1999/xlink" width="35" height="35" viewBox="0 0 35 35">
  <defs>
    <linearGradient id="linear-gradient" x1="0.5" x2="0.5" y2="1" gradientUnits="objectBoundingBox">
      <stop offset="0" stop-color="#f6921e"/>
      <stop offset="1" stop-color="#ee4036"/>
    </linearGradient>
  </defs>
  <path id="iconfinder_Circled_Twitter_svg_5279123" d="M17.5,0A17.5,17.5,0,1,1,0,17.5,17.508,17.508,0,0,1,17.5,0ZM14.418,26.808A11.9,11.9,0,0,0,26.4,14.83c0-.183,0-.367-.009-.541a8.624,8.624,0,0,0,2.1-2.183,8.543,8.543,0,0,1-2.418.663,4.208,4.208,0,0,0,1.851-2.331,8.526,8.526,0,0,1-2.672,1.021,4.212,4.212,0,0,0-7.281,2.881,3.859,3.859,0,0,0,.113.96,11.942,11.942,0,0,1-8.678-4.4,4.208,4.208,0,0,0,1.31,5.614,4.135,4.135,0,0,1-1.9-.524v.052a4.214,4.214,0,0,0,3.379,4.13,4.2,4.2,0,0,1-1.109.148,4.015,4.015,0,0,1-.794-.079,4.2,4.2,0,0,0,3.929,2.925,8.462,8.462,0,0,1-5.23,1.8,7.662,7.662,0,0,1-1-.061,11.729,11.729,0,0,0,6.434,1.9Z" fill-rule="evenodd" fill="url(#linear-gradient)"/>
</svg>
