<svg xmlns="http://www.w3.org/2000/svg" width="55.813" height="73.272" viewBox="0 0 55.813 73.272">
  <g id="medal" transform="translate(-61)">
    <g id="Group_159" data-name="Group 159" transform="translate(61)">
      <g id="Group_158" data-name="Group 158" transform="translate(0)">
        <path id="Path_47" data-name="Path 47" d="M88.906,0A27.9,27.9,0,0,0,73.88,51.412V71.125a2.147,2.147,0,0,0,3.337,1.786l11.689-7.793L100.6,72.911a2.147,2.147,0,0,0,3.337-1.786V51.412A27.9,27.9,0,0,0,88.906,0ZM99.639,67.114,90.1,60.752a2.147,2.147,0,0,0-2.381,0l-9.542,6.362V53.665a27.891,27.891,0,0,0,21.466,0ZM88.906,51.519a23.613,23.613,0,1,1,23.613-23.613A23.64,23.64,0,0,1,88.906,51.519Z" transform="translate(-61)"/>
      </g>
    </g>
    <g id="Group_161" data-name="Group 161" transform="translate(71.733 10.733)">
      <g id="Group_160" data-name="Group 160" transform="translate(0)">
        <path id="Path_48" data-name="Path 48" d="M170.243,87.151A2.147,2.147,0,0,0,168.5,85.68l-9.274-1.316-4.138-8.187a2.147,2.147,0,0,0-3.832,0l-4.138,8.187-9.274,1.316a2.147,2.147,0,0,0-1.178,3.68l6.68,6.357-1.574,8.963a2.147,2.147,0,0,0,3.095,2.281l8.306-4.264,8.306,4.264a2.147,2.147,0,0,0,3.095-2.281L163,95.718l6.68-6.357A2.147,2.147,0,0,0,170.243,87.151ZM159.206,93.4a2.147,2.147,0,0,0-.634,1.926l1.026,5.844-5.445-2.8a2.147,2.147,0,0,0-1.961,0l-5.445,2.8,1.026-5.844a2.147,2.147,0,0,0-.634-1.926l-4.3-4.093,5.992-.85a2.147,2.147,0,0,0,1.614-1.157l2.728-5.4,2.728,5.4a2.146,2.146,0,0,0,1.614,1.157l5.992.85Z" transform="translate(-135.999 -75)"/>
      </g>
    </g>
  </g>
</svg>
