<svg xmlns="http://www.w3.org/2000/svg" width="73.888" height="73.904" viewBox="0 0 73.888 73.904">
  <g id="heart_4_" data-name="heart (4)" transform="translate(-0.057)">
    <g id="Group_221" data-name="Group 221" transform="translate(14.344)">
      <g id="Group_220" data-name="Group 220">
        <path id="Path_130" data-name="Path 130" d="M142.793,4.184A12.331,12.331,0,0,0,123.23,5.559c-.2.273-.378.545-.549.815-.171-.27-.353-.543-.549-.815a12.332,12.332,0,0,0-19.563-1.375,14.432,14.432,0,0,0-3.533,9.639c0,3.972,1.541,7.638,4.851,11.535,2.887,3.4,7.029,6.9,11.825,10.944,1.772,1.5,3.6,3.042,5.552,4.73a2.165,2.165,0,0,0,2.835,0c1.947-1.687,3.779-3.234,5.551-4.73,3.08-2.6,5.74-4.845,8.048-7.022,4.481-4.228,8.628-9.027,8.628-15.458A14.431,14.431,0,0,0,142.793,4.184Zm-8.066,21.948c-2.221,2.1-4.838,4.3-7.869,6.863-1.348,1.138-2.731,2.305-4.177,3.545-1.446-1.239-2.829-2.407-4.177-3.545-9.44-7.968-15.138-12.777-15.138-19.171,0-5.412,3.686-9.494,8.575-9.494a7.965,7.965,0,0,1,6.6,3.654,14.569,14.569,0,0,1,2.052,4.067,2.165,2.165,0,0,0,4.172,0c.021-.077,2.213-7.721,8.654-7.721,4.889,0,8.575,4.082,8.575,9.494C142,17.745,139.958,21.2,134.727,26.132Z" transform="translate(-99.036)"/>
      </g>
    </g>
    <g id="Group_223" data-name="Group 223" transform="translate(0.057 42.729)">
      <g id="Group_222" data-name="Group 222" transform="translate(0)">
        <path id="Path_131" data-name="Path 131" d="M67.451,296.891a6.517,6.517,0,0,0-4.753,2.068l-6.362,6.83a6.506,6.506,0,0,0-6.2-4.569h-10a5.751,5.751,0,0,1-3.8-1.434,15.184,15.184,0,0,0-19.857-.138,6.489,6.489,0,0,0-5.307-2.757H2.222a2.165,2.165,0,0,0-2.165,2.165v25.976A2.165,2.165,0,0,0,2.222,327.2h8.947a6.479,6.479,0,0,0,4.881-2.218l1.282.36A49.784,49.784,0,0,0,30.8,327.2H50.133a15.225,15.225,0,0,0,12.122-6.061l10.393-13.857h0a6.494,6.494,0,0,0-5.2-10.387ZM13.334,320.7a2.167,2.167,0,0,1-2.165,2.165H4.386V301.22h6.783a2.167,2.167,0,0,1,2.165,2.165Zm55.851-16.022h0L58.792,318.538a10.875,10.875,0,0,1-8.659,4.329H30.8a45.457,45.457,0,0,1-12.3-1.7l-.847-.238c0-.077.006-.153.006-.231V304.363l1.509-1.328a10.847,10.847,0,0,1,14.3,0,10.077,10.077,0,0,0,6.661,2.513h10a2.165,2.165,0,0,1,0,4.329H34.749a2.165,2.165,0,1,0,0,4.329H51.584a6.516,6.516,0,0,0,4.752-2.068l9.53-10.23a2.144,2.144,0,0,1,1.585-.69,2.167,2.167,0,0,1,2.165,2.165A2.143,2.143,0,0,1,69.185,304.681Z" transform="translate(-0.057 -296.021)"/>
      </g>
    </g>
  </g>
</svg>
