<svg xmlns="http://www.w3.org/2000/svg" width="73.775" height="73.772" viewBox="0 0 73.775 73.772">
  <g id="gift" transform="translate(0 -0.013)">
    <path id="Path_129" data-name="Path 129" d="M67.147,12.689H50.424A8.068,8.068,0,0,0,38.1,2.372,6.442,6.442,0,0,0,36.888,4.1a6.445,6.445,0,0,0-1.211-1.73A8.068,8.068,0,0,0,23.352,12.689H6.628A6.636,6.636,0,0,0,0,19.317V24.5a6.639,6.639,0,0,0,4.611,6.313V67.156a6.636,6.636,0,0,0,6.628,6.628h51.3a6.636,6.636,0,0,0,6.628-6.628V30.818A6.639,6.639,0,0,0,73.775,24.5V19.317A6.636,6.636,0,0,0,67.147,12.689ZM39.193,26.522H34.582V17.3h4.611Zm.542-15.784c.712-4.1,1.532-5.014,1.623-5.1a3.458,3.458,0,0,1,4.891,4.891c-.091.091-1,.906-5.068,1.617-.592.1-1.169.19-1.7.262C39.55,11.882,39.635,11.317,39.736,10.738Zm-12.21-5.1a3.462,3.462,0,0,1,4.891,0c.091.091.906,1,1.617,5.068.1.592.19,1.169.262,1.7-.52-.07-1.085-.155-1.664-.255-4.1-.712-5.014-1.532-5.1-1.623a3.462,3.462,0,0,1,0-4.891ZM4.611,19.317A2.02,2.02,0,0,1,6.628,17.3H29.971v9.222H6.628A2.02,2.02,0,0,1,4.611,24.5ZM9.222,67.156V31.133H29.971v38.04H11.239A2.02,2.02,0,0,1,9.222,67.156Zm25.36,2.017V31.133h4.611v38.04Zm29.971-2.017a2.02,2.02,0,0,1-2.017,2.017H43.8V31.133H64.553ZM69.164,24.5a2.02,2.02,0,0,1-2.017,2.017H43.8V17.3H67.147a2.02,2.02,0,0,1,2.017,2.017Z" transform="translate(0 0)"/>
  </g>
</svg>
